<svg width="270" height="64" viewBox="0 0 270 64" fill="none" xmlns="http://www.w3.org/2000/svg">
<path d="M34.1876 51.6956C32.389 51.5988 30.6575 51.2502 29.0244 50.6862C21.5111 48.0889 16.1034 40.8996 16.1034 32.4322C16.1034 22.7134 23.2234 14.6744 32.4873 13.3358C32.9765 13.2656 33.4705 13.2148 33.9693 13.1809C36.1133 12.0335 38.4682 11.2371 40.9647 10.8765C41.9695 10.7336 42.9959 10.6513 44.0414 10.6513C44.0726 10.6513 44.1062 10.6513 44.1374 10.6513C42.4371 8.02254 41.7968 4.90718 42.31 2C40.274 5.57044 36.2715 7.99833 31.6624 7.99833C27.0532 7.99833 23.0507 5.57286 21.0123 2.00242C21.7245 6.0594 20.2041 10.5182 16.6741 13.5077C13.1465 16.4972 8.53249 17.2355 4.6979 15.8218C7.82745 18.4676 9.49893 22.8683 8.70036 27.4457C7.90179 32.0256 4.83699 35.5815 1 36.9879C5.0792 36.9854 9.16799 39.2729 11.4702 43.296C13.7724 47.324 13.6908 52.0369 11.6476 55.6025C14.77 52.9519 19.3552 52.0515 23.6838 53.6442C28.0124 55.2346 30.9525 58.8994 31.6576 62.9564C32.3626 58.9019 35.3003 55.237 39.6265 53.6467C38.7536 53.4627 37.8999 53.2255 37.0701 52.9374C36.0749 52.5937 35.1132 52.1749 34.19 51.6932L34.1876 51.6956Z" fill="url(#paint0_radial_2494_837)"/>
<path d="M44.032 13.1372C43.1039 13.1372 42.1926 13.2098 41.3005 13.3357C40.7321 13.418 40.1734 13.5245 39.6242 13.6576C31.1924 15.6668 24.9189 23.3087 24.9189 32.4321C24.9189 40.897 30.3243 48.0888 37.84 50.6861C38.4252 50.8894 39.0247 51.0589 39.6338 51.2065C41.0463 51.5454 42.5187 51.727 44.0344 51.727C54.5909 51.727 63.1498 43.0877 63.1498 32.4321C63.1498 21.7765 54.5909 13.1372 44.0344 13.1372H44.032Z" fill="url(#paint1_radial_2494_837)"/>
<g style="mix-blend-mode:screen" opacity="0.4">
<ellipse cx="7.0096" cy="3.22701" rx="7.0096" ry="3.22701" transform="matrix(0.794041 -0.607864 0.600694 0.799479 27.8589 23.1089)" fill="#CDF7FF"/>
</g>
<path d="M82.3 18.1201H78.8C78.6343 18.1201 78.5 18.2544 78.5 18.4201V46.4001C78.5 46.5658 78.6343 46.7001 78.8 46.7001H82.3C82.4657 46.7001 82.6 46.5658 82.6 46.4001V18.4201C82.6 18.2544 82.4657 18.1201 82.3 18.1201Z" fill="white"/>
<path d="M118.03 15.5H114.31C114.14 15.5 114.01 15.63 114.01 15.8V40.03L97.2602 22.98C97.1702 22.89 97.0502 22.87 96.9302 22.91C96.8202 22.96 96.7402 23.07 96.7402 23.19V46.41C96.7402 46.58 96.8702 46.71 97.0402 46.71H100.76C100.93 46.71 101.06 46.58 101.06 46.41V33.11L114.32 46.62C114.38 46.68 114.45 46.71 114.53 46.71H118.03C118.2 46.71 118.33 46.58 118.33 46.41V15.8C118.33 15.63 118.2 15.5 118.03 15.5Z" fill="white"/>
<path d="M148.67 18.1201H131.18C131.01 18.1201 130.88 18.2501 130.88 18.4201V21.9201C130.88 22.0901 131.01 22.2201 131.18 22.2201H137.79V46.4101C137.79 46.5801 137.92 46.7101 138.09 46.7101H141.76C141.93 46.7101 142.06 46.5801 142.06 46.4101V22.2201H148.67C148.84 22.2201 148.97 22.0901 148.97 21.9201V18.4201C148.97 18.2501 148.84 18.1201 148.67 18.1201Z" fill="white"/>
<path d="M180.16 16.9699C180.05 16.9199 179.92 16.9499 179.83 17.0399L169.72 27.1499L159.62 17.0399C159.53 16.9499 159.41 16.9299 159.29 16.9699C159.18 17.0199 159.1 17.1299 159.1 17.2499V46.4199C159.1 46.5899 159.23 46.7199 159.4 46.7199H162.9C163.07 46.7199 163.2 46.5899 163.2 46.4199V26.3999L169.55 32.7099C169.61 32.7699 169.68 32.7999 169.76 32.7999C169.84 32.7999 169.92 32.7699 169.97 32.7099L176.23 26.4099V46.4099C176.23 46.5799 176.36 46.7099 176.53 46.7099H180.03C180.2 46.7099 180.33 46.5799 180.33 46.4099V17.2399C180.33 17.1199 180.26 17.0099 180.15 16.9599L180.16 16.9699Z" fill="white"/>
<path d="M206.58 17.0001C206.53 16.9101 206.43 16.8501 206.32 16.8501C206.21 16.8501 206.12 16.9101 206.06 17.0001L189.18 45.2501C189.14 45.3201 189.13 45.4001 189.15 45.4801C189.17 45.5601 189.22 45.6201 189.29 45.6601L192.57 47.5401C192.57 47.5401 192.67 47.5801 192.72 47.5801C192.82 47.5801 192.92 47.5301 192.98 47.4301L199.32 36.7801H213.37L219.75 47.4401C219.84 47.5801 220.02 47.6301 220.16 47.5501L223.4 45.6701C223.47 45.6301 223.52 45.5601 223.54 45.4901C223.56 45.4101 223.54 45.3301 223.51 45.2601L206.58 17.0001ZM210.78 32.4201H201.96L206.37 25.0401L210.78 32.4201Z" fill="white"/>
<path d="M252.2 43.9701L242.96 34.6801L251.85 19.1401C251.93 19.0001 251.88 18.8101 251.74 18.7301L248.46 16.8501C248.39 16.8101 248.31 16.8001 248.23 16.8201C248.15 16.8401 248.09 16.8901 248.05 16.9601L239.81 31.4401L228.85 20.4001C228.79 20.3401 228.72 20.3101 228.64 20.3101C228.56 20.3101 228.48 20.3401 228.43 20.4001L225.81 23.0701C225.69 23.1901 225.69 23.3801 225.81 23.4901L237.59 35.3501L230.23 48.2701C230.15 48.4101 230.2 48.6001 230.34 48.6801L233.58 50.5601C233.58 50.5601 233.68 50.6001 233.73 50.6001C233.76 50.6001 233.78 50.6001 233.81 50.6001C233.89 50.5801 233.95 50.5301 233.99 50.4601L240.75 38.5601L249.17 47.0701C249.23 47.1301 249.3 47.1601 249.38 47.1601C249.46 47.1601 249.54 47.1301 249.59 47.0701L252.21 44.4001C252.33 44.2801 252.33 44.1001 252.21 43.9801L252.2 43.9701Z" fill="white"/>
<defs>
<radialGradient id="paint0_radial_2494_837" cx="0" cy="0" r="1" gradientUnits="userSpaceOnUse" gradientTransform="translate(10.1053 8.42105) rotate(56.1649) scale(61.5038 62.2776)">
<stop stop-color="#11E8BB"/>
<stop offset="0.337688" stop-color="#15D7F4"/>
<stop offset="0.657022" stop-color="#3975FF"/>
<stop offset="0.801297" stop-color="#713CF3"/>
<stop offset="0.88127" stop-color="#9926FA"/>
<stop offset="0.947302" stop-color="#A90EFD"/>
<stop offset="1" stop-color="#D52BFF"/>
</radialGradient>
<radialGradient id="paint1_radial_2494_837" cx="0" cy="0" r="1" gradientUnits="userSpaceOnUse" gradientTransform="translate(20.2106 6.73698) rotate(48.8141) scale(53.7102 40.3113)">
<stop stop-color="#0FFFDF"/>
<stop offset="0.337688" stop-color="#15D7F4"/>
<stop offset="0.657022" stop-color="#3975FF"/>
<stop offset="0.801297" stop-color="#713CF3"/>
<stop offset="0.88127" stop-color="#9926FA"/>
<stop offset="0.947302" stop-color="#A90EFD"/>
<stop offset="1" stop-color="#D52BFF"/>
</radialGradient>
</defs>
</svg>
